<?xml version="1.0" encoding="utf-8"?>
<!-- Generator: Adobe Illustrator 24.2.3, SVG Export Plug-In . SVG Version: 6.00 Build 0)  -->
<svg version="1.1" id="Layer_1" xmlns="http://www.w3.org/2000/svg" xmlns:xlink="http://www.w3.org/1999/xlink" x="0px" y="0px"
	 viewBox="0 0 280 157.5" style="enable-background:new 0 0 280 157.5;" xml:space="preserve">
<style type="text/css">
	.st0{fill:#4BCDA2;}
	.st1{fill:#FBF272;}
</style>
<g id="Mask">
</g>
<g>
	<path class="st0" d="M280,0H0v132.8c52.3-143.2,71.3-163.2,57-60c-4,28.8-8.7,57.3-13.6,84.7h67.1c25.6-73.8,44.9-124.5,47-77.7
		c0.9,19.6-2.3,47-7.6,77.7h43.6c21.9-55.2,38.5-87.5,39.5-49.8c0.3,13.4-1.1,30-4.1,49.8H280V0z"/>
	<path class="st1" d="M43.3,157.5c4.9-27.4,9.6-55.8,13.6-84.7c14.4-103.2-4.6-83.2-57,60v24.7H43.3z"/>
	<path class="st1" d="M157.4,79.8c-2.1-46.8-21.4,3.9-47,77.7h39.4C155.1,126.9,158.3,99.4,157.4,79.8z"/>
	<path class="st1" d="M232.8,107.7c-0.9-37.7-17.5-5.4-39.5,49.8h35.3C231.8,137.7,233.2,121.1,232.8,107.7z"/>
</g>
</svg>
