<?xml version="1.0" encoding="utf-8"?>
<!-- Generator: Adobe Illustrator 24.2.3, SVG Export Plug-In . SVG Version: 6.00 Build 0)  -->
<svg version="1.1" id="Layer_1" xmlns="http://www.w3.org/2000/svg" xmlns:xlink="http://www.w3.org/1999/xlink" x="0px" y="0px"
	 viewBox="0 0 280 157.5" style="enable-background:new 0 0 280 157.5;" xml:space="preserve">
<style type="text/css">
	.st0{fill:#C6FB72;}
	.st1{fill:#60E4E1;}
</style>
<g id="Illustration-_x26_-colour-palette-">
	<g id="Desktop-HD-Copy-4" transform="translate(-188.000000, -283.000000)">
	</g>
</g>
<g>
	<path class="st0" d="M26.1,0H0v157.5h66.1l16.3-45.7C50.3,94.1,27.3,51,26.1,0z"/>
	<path class="st0" d="M82.4,111.8c10.1,5.5,21.1,8.5,32.6,8.5c11.4,0,22.3-3.1,32.3-8.5l-32.5-91.4L82.4,111.8z"/>
	<path class="st0" d="M280,0h-76.1c-1.3,51-24.4,94.3-56.6,111.8l16.3,45.7H280V0z"/>
	<path class="st1" d="M82.4,111.8l32.4-91.2l32.5,91.4c32.3-17.7,55.4-60.8,56.6-111.8H26.1C27.3,51,50.3,94.1,82.4,111.8z"/>
	<path class="st1" d="M115,120.3c-11.5,0-22.5-3.1-32.6-8.5l-16.3,45.7h97.4l-16.2-45.7C137.3,117.2,126.4,120.3,115,120.3z"/>
</g>
</svg>
