<?xml version="1.0" encoding="utf-8"?>
<!-- Generator: Adobe Illustrator 24.2.3, SVG Export Plug-In . SVG Version: 6.00 Build 0)  -->
<svg version="1.1" id="Layer_1" xmlns="http://www.w3.org/2000/svg" xmlns:xlink="http://www.w3.org/1999/xlink" x="0px" y="0px"
	 viewBox="0 0 280 72" style="enable-background:new 0 0 280 72;" xml:space="preserve">
<style type="text/css">
	.st0{fill:#C6FB72;}
	.st1{fill:#60E4E1;}
</style>
<g id="Illustration-_x26_-colour-palette-">
	<g id="Desktop-HD-Copy-4" transform="translate(-188.000000, -283.000000)">
	</g>
</g>
<g>
	<path class="st0" d="M26.1,0H0v72h66.1l16.3-20.9C50.3,43,27.3,23.3,26.1,0z"/>
	<path class="st0" d="M82.4,51.1C92.5,53.6,103.5,55,115,55c11.4,0,22.3-1.4,32.3-3.9L114.8,9.3L82.4,51.1z"/>
	<path class="st0" d="M280,0h-76.1c-1.3,23.3-24.4,43.1-56.6,51.1L163.6,72H280V0z"/>
	<path class="st1" d="M82.4,51.1l32.4-41.7l32.5,41.8c32.3-8.1,55.4-27.8,56.6-51.1H26.1C27.3,23.3,50.3,43,82.4,51.1z"/>
	<path class="st1" d="M115,55c-11.5,0-22.5-1.4-32.6-3.9L66.1,72h97.4l-16.2-20.9C137.3,53.6,126.4,55,115,55z"/>
</g>
</svg>
