<?xml version="1.0" encoding="utf-8"?>
<!-- Generator: Adobe Illustrator 24.2.1, SVG Export Plug-In . SVG Version: 6.00 Build 0)  -->
<svg version="1.1" id="Layer_1" xmlns="http://www.w3.org/2000/svg" xmlns:xlink="http://www.w3.org/1999/xlink" x="0px" y="0px"
	 viewBox="0 0 280 72" style="enable-background:new 0 0 280 72;" xml:space="preserve">
<style type="text/css">
	.st0{fill-rule:evenodd;clip-rule:evenodd;fill:#C6FB72;}
	.st1{filter:url(#Adobe_OpacityMaskFilter);}
	.st2{fill-rule:evenodd;clip-rule:evenodd;fill:#FFFFFF;}
	.st3{mask:url(#mask-2_1_);fill-rule:evenodd;clip-rule:evenodd;fill:#60E4E1;}
</style>
<g id="Illustration-_x26_-colour-palette-">
	<g id="Desktop-HD-Copy-4" transform="translate(-188.000000, -283.000000)">
		<g id="Illustration-01" transform="translate(188.000000, 283.000000)">
			<g id="Mask">
				<path id="path-1_1_" class="st0" d="M0.4,0h279.2c0.2,0,0.4,0.2,0.4,0.4v71.2c0,0.2-0.2,0.4-0.4,0.4H0.4C0.2,72,0,71.8,0,71.6
					V0.4C0,0.2,0.2,0,0.4,0z"/>
			</g>
			<defs>
				<filter id="Adobe_OpacityMaskFilter" filterUnits="userSpaceOnUse" x="26" y="-59" width="178" height="202.5">
					<feColorMatrix  type="matrix" values="1 0 0 0 0  0 1 0 0 0  0 0 1 0 0  0 0 0 1 0"/>
				</filter>
			</defs>
			<mask maskUnits="userSpaceOnUse" x="26" y="-59" width="178" height="202.5" id="mask-2_1_">
				<g class="st1">
					<path id="path-1_2_" class="st2" d="M16,0h248c8.8,0,16,7.2,16,16v40c0,8.8-7.2,16-16,16H16C7.2,72,0,64.8,0,56V16
						C0,7.2,7.2,0,16,0z"/>
				</g>
			</mask>
			<path id="Shape-01" class="st3" d="M115-59c49.2,0,89,25.5,89,57c0,24.2-23.5,44.8-56.7,53.1l26.2,33.7l-58.7,58.7L56.2,84.8
				l26.3-33.8C49.4,42.7,26,22.1,26-2C26-33.5,65.8-59,115-59z M114.8,9.3L82.4,51.1C92.5,53.6,103.5,55,115,55
				c11.4,0,22.3-1.4,32.3-3.9L114.8,9.3z"/>
		</g>
	</g>
</g>
</svg>
