<?xml version="1.0" encoding="UTF-8"?>
<svg width="13px" height="14px" viewBox="0 0 13 14" version="1.1" xmlns="http://www.w3.org/2000/svg" xmlns:xlink="http://www.w3.org/1999/xlink">
    <title>316CB10D-4032-4FEE-A48E-2934B1DE76B9</title>
    <g id="Notification" stroke="none" stroke-width="1" fill="none" fill-rule="evenodd">
        <g id="Diksha_notification-pop-over" transform="translate(-1272.000000, -172.000000)" fill="#FF2F52">
            <g id="Group-10" transform="translate(901.000000, 88.000000)">
                <g id="Group-19" transform="translate(16.000000, 76.000000)">
                    <g id="Group" transform="translate(355.000000, 8.000000)">
                        <path d="M10.8858092,2.58149416 L10.4613644,12.5829584 C10.4540796,12.7546134 10.2808543,12.9 10.0833275,12.9 L2.75000584,12.9 C2.55267437,12.9 2.37923086,12.7540746 2.37196898,12.5829584 L1.94752413,2.58149416 C1.93581314,2.305541 1.66999174,2.0901221 1.35379539,2.10034258 C1.03759906,2.11056308 0.790764906,2.34255266 0.802475873,2.61850584 L1.22692073,12.6199701 C1.25698998,13.328511 1.93624867,13.9 2.75000584,13.9 L10.0833275,13.9 C10.8966633,13.9 11.5762976,13.3295885 11.6064126,12.6199701 L12.0308575,2.61850584 C12.0425684,2.34255266 11.7957343,2.11056308 11.4795379,2.10034258 C11.1633416,2.0901221 10.8975202,2.305541 10.8858092,2.58149416 Z" id="Path"></path>
                        <path d="M5.95833333,4.6 L5.95833333,11.4 C5.95833333,11.6209139 6.16353616,11.8 6.41666667,11.8 C6.66979718,11.8 6.875,11.6209139 6.875,11.4 L6.875,4.6 C6.875,4.3790861 6.66979718,4.2 6.41666667,4.2 C6.16353616,4.2 5.95833333,4.3790861 5.95833333,4.6 Z" id="Path"></path>
                        <path d="M3.43769811,4.61175962 L3.66686478,11.4117596 C3.67430658,11.632578 3.88545346,11.8063218 4.13847456,11.7998271 C4.39149567,11.7933324 4.59057702,11.6090588 4.58313522,11.3882404 L4.35396855,4.58824038 C4.34652675,4.36742196 4.13537987,4.19367824 3.88235877,4.2001729 C3.62933766,4.20666756 3.43025632,4.3909412 3.43769811,4.61175962 Z" id="Path"></path>
                        <path d="M8.47936478,4.58824038 L8.25019811,11.3882404 C8.24275632,11.6090588 8.44183766,11.7933324 8.69485877,11.7998271 C8.94787988,11.8063218 9.15902675,11.632578 9.16646855,11.4117596 L9.39563522,4.61175962 C9.40307702,4.3909412 9.20399567,4.20666756 8.95097456,4.2001729 C8.69795346,4.19367824 8.48680658,4.36742196 8.47936478,4.58824038 Z" id="Path"></path>
                        <path d="M0.6875,2.8 L12.1458333,2.8 C12.4622465,2.8 12.71875,2.57614238 12.71875,2.3 C12.71875,2.02385762 12.4622465,1.8 12.1458333,1.8 L0.6875,1.8 C0.371086856,1.8 0.114583333,2.02385762 0.114583333,2.3 C0.114583333,2.57614238 0.371086856,2.8 0.6875,2.8 Z" id="Path"></path>
                        <path d="M4.6758731,2.13736056 L4.91443684,1.40865678 C4.96553257,1.25258254 5.1973551,1.1 5.38346799,1.1 L7.44986534,1.1 C7.63609699,1.1 7.86775795,1.25245178 7.91889649,1.40865678 L8.15746023,2.13736056 L9.25920644,1.86263944 L9.0206427,1.13393566 C8.82893852,0.5483666 8.14761464,0.1 7.44986534,0.1 L5.38346799,0.1 C4.68580147,0.1 4.0043421,0.5485276 3.81269064,1.13393566 L3.5741269,1.86263944 L4.6758731,2.13736056 Z" id="Path"></path>
                    </g>
                </g>
            </g>
        </g>
    </g>
</svg>