<?xml version="1.0" encoding="UTF-8"?>
<svg width="24px" height="24px" viewBox="0 0 24 24" version="1.1" xmlns="http://www.w3.org/2000/svg" xmlns:xlink="http://www.w3.org/1999/xlink">
    <title>551C58C3-66B4-4282-A22E-92A76F9408E0</title>
    <g id="Page-1" stroke="none" stroke-width="1" fill="none" fill-rule="evenodd">
        <g id="Course-compleated" transform="translate(-32.000000, -283.000000)" fill-rule="nonzero">
            <g id="Group" transform="translate(16.000000, 240.000000)">
                <g id="Group-3" transform="translate(0.000000, 28.000000)">
                    <g id="Group" transform="translate(16.000000, 15.000000)">
                        <path d="M12,24 C5.372583,24 0,18.627417 0,12 C0,5.372583 5.372583,0 12,0 C18.627417,0 24,5.372583 24,12 C24,18.627417 18.627417,24 12,24 Z" id="Path" fill="#008840"></path>
                        <path d="M17.5959412,8.4008584 C18.0495834,8.84995655 18.1339418,9.49354105 17.7843416,9.83836399 L10.6182446,17 C10.3165539,16.7011194 10.0564147,16.443436 9.83782682,16.2269497 L9.83674557,16.2308553 L6.06873458,12.5076328 C5.87955411,12.3206956 6.09428837,11.8054326 6.54832377,11.3567224 C7.00243073,10.9080837 7.52389132,10.6959016 7.71307437,10.8828362 L10.6069984,13.7419986 L16.1414874,8.21210587 C16.4910877,7.86728293 17.1422601,7.95179899 17.5959412,8.4008584 Z" id="Combined-Shape" fill="#FFFFFF"></path>
                    </g>
                </g>
            </g>
        </g>
    </g>
</svg>