<?xml version="1.0" encoding="UTF-8"?>
<svg width="79px" height="36px" viewBox="0 0 79 36" version="1.1" xmlns="http://www.w3.org/2000/svg" xmlns:xlink="http://www.w3.org/1999/xlink">
    <title>536CDCAF-4A97-4892-A915-61863D84DDAF</title>
    <g stroke="none" stroke-width="1" fill="none" fill-rule="evenodd">
        <g transform="translate(-735.000000, -524.000000)" fill="#F4FFFB" stroke="#FF794A">
            <g transform="translate(517.000000, 338.000000)">
                <g>
                    <path d="M224.269945,224.907985 C224.269945,224.907985 217.096964,205.264724 219.487958,199.23369 C221.878951,193.203161 229.905965,205.609232 231.442925,210.261729 C231.442925,210.261729 230.930605,187 237.762123,187 C244.59339,187 245.447423,217.498667 245.447423,217.498667 C245.447423,217.498667 247.838417,203.54168 252.27894,203.54168 C256.719214,203.54168 251.424907,219.049331 253.645044,218.704823 C255.865431,218.360315 264.612662,211.290301 270.931859,218.871747 C277.250806,226.453445 274.347493,238.1705 281.17901,237.998119 C288.010277,237.825992 268.503575,211.123125 272.431528,205.95374 C276.359732,200.784607 286.265169,212.84617 287.119203,215.94775 C287.119203,215.94775 286.606883,199.23369 291.218013,199.23369 C295.829393,199.23369 296,223.18494 296,223.18494 L224.269945,224.907985 Z"></path>
                </g>
            </g>
        </g>
    </g>
</svg>