<?xml version="1.0" encoding="utf-8"?>
<!-- Generator: Adobe Illustrator 24.2.0, SVG Export Plug-In . SVG Version: 6.00 Build 0)  -->
<svg version="1.1" id="Capa_1" xmlns="http://www.w3.org/2000/svg" xmlns:xlink="http://www.w3.org/1999/xlink" x="0px" y="0px"
	 viewBox="0 0 477.9 477.9" style="enable-background:new 0 0 477.9 477.9;" xml:space="preserve">
<style type="text/css">
	.st0{fill:#024F9D;}
</style>
<g>
	<g>
		<path class="st0" d="M238.9,0C107,0,0,107,0,238.9s107,238.9,238.9,238.9s238.9-107,238.9-238.9C477.7,107,370.8,0.1,238.9,0z
			 M370.5,165.7L199.8,336.3c-6.7,6.7-17.5,6.7-24.1,0l-68.3-68.3c-6.8-6.5-7-17.4-0.4-24.1c6.5-6.8,17.4-7,24.1-0.4
			c0.1,0.1,0.3,0.3,0.4,0.4l56.2,56.2l158.6-158.6c6.8-6.5,17.6-6.4,24.1,0.4C376.9,148.6,376.9,159.1,370.5,165.7z"/>
	</g>
</g>
</svg>
