<!-- SVG Sprite -->
<svg width="0" height="0" class="hidden">
    <symbol xmlns="http://www.w3.org/2000/svg" viewBox="0 0 357 357" id="close-button">
        <path d="M357 35.7L321.3 0 178.5 142.8 35.7 0 0 35.7l142.8 142.8L0 321.3 35.7 357l142.8-142.8L321.3 357l35.7-35.7-142.8-142.8z"></path>
    </symbol>
    <symbol xmlns="http://www.w3.org/2000/svg" viewBox="0 0 512 512" id="close">
        <path d="M505.943 6.058c-8.077-8.077-21.172-8.077-29.249 0L6.058 476.693c-8.077 8.077-8.077 21.172 0 29.249A20.612 20.612 0 0 0 20.683 512a20.614 20.614 0 0 0 14.625-6.059L505.943 35.306c8.076-8.076 8.076-21.171 0-29.248z"></path>
        <path d="M505.942 476.694L35.306 6.059c-8.076-8.077-21.172-8.077-29.248 0-8.077 8.076-8.077 21.171 0 29.248l470.636 470.636a20.616 20.616 0 0 0 14.625 6.058 20.615 20.615 0 0 0 14.624-6.057c8.075-8.078 8.075-21.173-.001-29.25z"></path>
    </symbol>
    <symbol viewBox="0 0 14 14" xmlns="http://www.w3.org/2000/svg" id="arrow-round-right">
        <path d="M7 0C3.1 0 0 3.1 0 7s3.1 7 7 7 7-3.1 7-7-3.1-7-7-7zM5.9 10.1l-.7-.7L7.4 7 5.2 4.6l.7-.7 3 3.1-3 3.1z"></path>
    </symbol>
    <symbol viewBox="0 0 12 8" xmlns="http://www.w3.org/2000/svg" id="arrow-up">
        <polygon points="12,6.2 10.6,7.5 6,3.2 1.4,7.5 0,6.2 6,0.5 " />
    </symbol>
    <symbol viewBox="0 0 12 14" xmlns="http://www.w3.org/2000/svg" id="doc">
        <path d="M7.5 0h-6C.7 0 0 .6 0 1.4v11.2c0 .8.7 1.4 1.5 1.4h9c.8 0 1.5-.6 1.5-1.4V4.2L7.5 0zM9 11.2H3V9.8h6v1.4zm0-2.8H3V7h6v1.4zM6.7 4.9V1l4.1 3.8H6.7v.1z"></path>
    </symbol>
    <symbol viewBox="0 0 12 8" xmlns="http://www.w3.org/2000/svg" id="arrow-down">
        <polygon class="st0" points="0,1.8 1.4,0.5 6,4.8 10.6,0.5 12,1.8 6,7.5 " />
    </symbol>
    <symbol viewBox="0 0 14 14" xmlns="http://www.w3.org/2000/svg" id="play">
        <path d="M7 0C3.1 0 0 3.1 0 7s3.1 7 7 7 7-3.1 7-7-3.1-7-7-7zM5.6 10.1V3.8l4.2 3.1-4.2 3.2z"></path>
    </symbol>
    <symbol viewBox="0 0 23 22" xmlns="http://www.w3.org/2000/svg" id="rating-star">
        <path d="M22.5 8.5l-7.9-.7L11.5.4 8.4 7.8l-8 .7 6 5.3-1.8 7.8 6.8-4.2 6.8 4.2-1.8-7.8 6.1-5.3zm-11 7l-4.1 2.6 1.1-4.9-3.6-3.3 4.8-.4 1.9-4.6 1.9 4.6 4.8.4-3.6 3.3 1.1 4.9-4.3-2.6z" fill="#024f9d"></path>
    </symbol>
    <symbol viewBox="0 0 12 12" xmlns="http://www.w3.org/2000/svg" id="arrow-long-right">
        <path d="M6 0L4.942 1.057 9.127 5.25H0v1.5h9.127l-4.185 4.192L6 12l6-6z"></path>
    </symbol>
    <symbol viewBox="0 0 10 14" xmlns="http://www.w3.org/2000/svg" id="touch">
        <path d="M2.8 5.5V3c0-.9.7-1.7 1.7-1.7S6.2 2 6.2 3v2.5C7 5 7.5 4 7.5 3c0-1.7-1.3-3-3-3s-3 1.3-3 3c0 1 .5 2 1.3 2.5zm6.6 3.1l-3-1.5C6.3 7 6.1 7 6 7h-.5V3c0-.6-.4-1-1-1s-1 .4-1 1v7.2l-2.3-.5H1c-.2 0-.4.1-.5.2l-.5.5 3.3 3.3c.2.2.4.3.7.3h4.5c.5 0 .9-.4 1-.9l.5-3.5v-.1c0-.4-.3-.8-.6-.9z"></path>
    </symbol>
    <symbol viewBox="0 0 14 17" xmlns="http://www.w3.org/2000/svg" id="book">
        <path d="M2.47 17H14v-1.619H2.47a.817.817 0 0 1-.823-.81c0-.447.369-.81.824-.81H14V0H3.294C1.246 0 0 .817 0 2.429V14.57C0 15.913 1.106 17 2.47 17zm-.823-4.719V2.429c0-.547.401-.81 1.647-.81v10.524h-.823c-.29 0-.566.049-.824.138zm3.294-.138V1.619h7.412v10.524H4.94zm5.765-7.286V3.238H6.588v1.62h4.118z" fill="#E55A28"></path>
    </symbol>
    <symbol viewBox="0 0 39 24" xmlns="http://www.w3.org/2000/svg" id="pendrive">
        <g fill="none" fill-rule="evenodd">
            <path d="M4.337 6.505A4.334 4.334 0 0 0 0 10.84v8.673a4.334 4.334 0 0 0 4.337 4.337h24.718c.454 0 .867-.413.867-.867v-1.735h7.372c.454 0 .867-.413.867-.867V9.974c0-.454-.413-.867-.867-.867h-7.372V7.372c0-.454-.413-.867-.867-.867H4.337zm0 1.734h23.85v13.877H4.337c-1.457 0-2.602-1.084-2.602-2.602v-8.673c0-1.517 1.145-2.602 2.602-2.602zm25.585 2.602h6.505v8.673h-6.505v-8.673zM4.242 12.13a.899.899 0 0 0-.773.88v4.77c0 .86.33 1.595.868 2.034.537.438 1.171.569 1.734.569.458.006.88-.41.88-.868s-.422-.873-.88-.867c-.304 0-.537-.084-.65-.176-.113-.092-.217-.204-.217-.691v-4.77c.01-.492-.473-.935-.962-.881zm28.2.447c-.453.021-.847.454-.826.908.021.454.454.848.908.827h1.301c.458.006.88-.41.88-.868s-.422-.874-.88-.867h-1.382zm0 3.47c-.453.02-.847.453-.826.907.021.454.454.848.908.827h1.301c.458.006.88-.41.88-.868s-.422-.873-.88-.867h-1.382z" fill="#FFF" fill-rule="nonzero"></path>
            <path d="M14.609 14.609a7.304 7.304 0 1 0 0-14.609 7.304 7.304 0 0 0 0 14.609z" fill="#FFF" fill-rule="nonzero"></path>
            <path d="M14.609 13.107a5.803 5.803 0 1 1 0-11.605 5.803 5.803 0 0 1 0 11.605z" fill="#024F9D" fill-rule="nonzero"></path>
            <path fill="#FFF" d="M15.743 5.217h-2.27v2.236h-1.995l3.13 2.982 3.131-2.982h-1.996z"></path>
        </g>
    </symbol>
    <symbol viewBox="0 0 80 61" xmlns="http://www.w3.org/2000/svg" id="outline-cloud_off">
        <g fill="none" fill-rule="evenodd">
            <path d="M0-11h80v80H0z"></path>
            <path d="M80 37.46c0-8.877-6.833-16.073-15.5-16.678C62.233 9.18 52.133.47 40 .47c-4.433 0-8.567 1.21-12.167 3.262l4.967 5.01c2.233-.975 4.633-1.547 7.2-1.547 10.133 0 18.333 8.273 18.333 18.495v1.682h5c5.534 0 10 4.506 10 10.088 0 3.329-1.6 6.22-4.033 8.07l4.7 4.742c3.633-3.094 6-7.634 6-12.812zM14.7 0L10 4.741l9.233 9.315h-1.4C7.8 15.132 0 23.707 0 34.098c0 11.13 8.967 20.177 20 20.177h39.1L65.767 61l4.7-4.741L14.7 0zM20 47.55c-7.367 0-13.333-6.02-13.333-13.452S12.633 20.648 20 20.648h5.767l26.666 26.901H20z" fill="#FFFFFF" fill-rule="nonzero" opacity="1"></path>
        </g>
    </symbol>
    <symbol viewBox="0 0 24 17" xmlns="http://www.w3.org/2000/svg" id="outline-cloud_download">
        <g fill="none" fill-rule="evenodd">
            <path d="M0-4h24v24H0z"></path>
            <path d="M19.35 6.303C18.67 2.703 15.64 0 12 0 9.11 0 6.6 1.711 5.35 4.216 2.34 4.55 0 7.21 0 10.435c0 3.454 2.69 6.26 6 6.26h13c2.76 0 5-2.337 5-5.217 0-2.755-2.05-4.988-4.65-5.175zm-.41 8.306H6.051c-2.19 0-3.965-1.868-3.965-4.174 0-2.14 1.517-3.924 3.529-4.143l1.06-.115.496-.99c.942-1.91 2.786-3.1 4.828-3.1 2.597 0 4.838 1.94 5.343 4.623l.298 1.565 1.516.115c1.547.104 2.756 1.47 2.756 3.088 0 1.722-1.338 3.13-2.974 3.13zM12.99 6.26H9.965v3.13h-2.66l4.173 4.174 4.174-4.174h-2.66V6.26z" fill="#FFF" fill-rule="nonzero"></path>
        </g>
    </symbol>
    <symbol viewBox="0 0 24 19" xmlns="http://www.w3.org/2000/svg" id="book-open">
        <g fill="none" fill-rule="evenodd">
            <path d="M6.443.26C4.445.26 2.416.982.38 2.35a.792.792 0 0 0-.348.64v14.93c-.157.477.275 1.045.777 1.02h21.757c.453.007.852-.459.776-.907 0-6.821.006-8.134 0-15.041a.792.792 0 0 0-.324-.624C21.091.978 19.085.295 17.078.312c-1.815.015-3.63.602-5.39 1.755C10.033.899 8.27.259 6.442.259zm10.683 1.515c1.534 0 3.068.563 4.662 1.645.005 5.877 0 8.053 0 13.388-1.64-.891-3.142-1.394-4.662-1.394-1.522 0-3.02.502-4.662 1.402V3.388c1.598-1.075 3.134-1.613 4.662-1.613zm-10.683.04c1.527 0 2.994.513 4.467 1.589v13.42c-1.733-.916-3.414-1.426-5.042-1.434-1.506-.007-2.95.413-4.281 1.232V3.436c1.719-1.088 3.333-1.62 4.856-1.62z" fill="#FFF" fill-rule="nonzero"></path>
            <path d="M0-2h24v24H0z"></path>
        </g>
    </symbol>
    <symbol viewBox="0 0 25 24" xmlns="http://www.w3.org/2000/svg" id="update">
        <path d="M12.133 6v3l4-4-4-4v3c-4.42 0-8 3.58-8 8 0 1.57.46 3.03 1.24 4.26l1.46-1.46a5.87 5.87 0 0 1-.7-2.8c0-3.31 2.69-6 6-6zm6.76 1.74l-1.46 1.46c.44.84.7 1.79.7 2.8 0 3.31-2.69 6-6 6v-3l-4 4 4 4v-3c4.42 0 8-3.58 8-8 0-1.57-.46-3.03-1.24-4.26z"></path>
    </symbol>
    <symbol xmlns="http://www.w3.org/2000/svg" viewBox="0 0 357 357" id="fullscreen">
        <path d="M51 229.5H0V357h127.5v-51H51v-76.5zm-51-102h51V51h76.5V0H0v127.5zM306 306h-76.5v51H357V229.5h-51V306zM229.5 0v51H306v76.5h51V0H229.5z"></path>
    </symbol>
    <symbol viewBox="0 0 24 23" xmlns="http://www.w3.org/2000/svg" id="print">
        <path d="M4.667 1a.514.514 0 0 0-.49.5v5h-1.22C1.88 6.5 1 7.4 1 8.5V16c0 1.1.88 2 1.956 2h1.222v3.5c0 .262.233.5.489.5h14.666a.514.514 0 0 0 .49-.5V18h1.221C22.12 18 23 17.1 23 16V8.5c0-1.1-.88-2-1.956-2h-1.222v-5c0-.262-.233-.5-.489-.5H4.667zm.489 1h13.688v4.5H5.156V2zm-2.2 5.5h18.088c.55 0 .978.437.978 1V16c0 .563-.427 1-.978 1h-1.222v-3.5c0-.262-.233-.5-.489-.5H4.667a.514.514 0 0 0-.49.5V17h-1.22c-.55 0-.978-.437-.978-1V8.5c0-.563.427-1 .978-1zm16.377 1.25c-.804 0-1.466.677-1.466 1.5 0 .822.662 1.5 1.466 1.5.805 0 1.467-.678 1.467-1.5 0-.823-.662-1.5-1.467-1.5zM5.156 14h13.688v7H5.156v-7z" stroke-width=".5"></path>
    </symbol>
    <symbol viewBox="0 0 25 24" xmlns="http://www.w3.org/2000/svg" id="rate">
        <path d="M23.9 9.084l-7.945-.692L12.85 1 9.745 8.403 1.8 9.084l6.033 5.282-1.812 7.85 6.829-4.165 6.829 4.165-1.801-7.85L23.9 9.084zM12.845 16.07l-4.097 2.6 1.09-4.901L6.22 10.47l4.772-.435 1.853-4.615 1.863 4.626 4.772.435-3.617 3.298 1.09 4.901-4.108-2.61z"></path>
    </symbol>
    <symbol viewBox="0 0 25 24" xmlns="http://www.w3.org/2000/svg" id="delete">
        <path d="M16.717 8.75V20H8.05V8.75h8.667zM15.092 2H9.675L8.592 3.125H4.8v2.25h15.167v-2.25h-3.792L15.092 2zm3.791 4.5h-13V20c0 1.238.975 2.25 2.167 2.25h8.667c1.191 0 2.166-1.012 2.166-2.25V6.5z"></path>
    </symbol>
    <symbol xmlns="http://www.w3.org/2000/svg" viewBox="0 0 512 512" id="download">
        <path d="M416.127 192.537c-2.361-87.108-73.957-157.248-161.624-157.248-40.274 0-78.862 14.9-108.657 41.953-25.673 23.31-43.021 53.957-49.814 87.53-24.27 5.219-46.423 17.773-63.563 36.25C11.531 223.598 0 252.997 0 283.804c0 30.24 11.139 59.314 31.365 81.866 20.151 22.47 47.6 36.598 77.29 39.781l1.061.114h3.064v-38.574l.133-1.234-.133-.015v-.1h-.871c-41.111-4.917-71.986-39.922-71.986-81.84 0-42.365 33.031-78.196 75.199-81.571l16.568-1.326 1.697-16.533c6.385-62.233 58.455-109.162 121.117-109.162 67.14 0 121.762 54.622 121.762 121.762v34.932h28.943c36.872 0 66.869 29.997 66.869 66.869s-29.997 66.869-66.869 66.869h-4.99v39.922h4.99c58.885 0 106.791-47.906 106.791-106.791 0-55.2-42.095-100.752-95.873-106.236z"></path>
        <path d="M335.345 340.409l-59.883 59.883V201.963H235.54v198.329l-59.883-59.883-28.229 28.229 108.073 108.073 108.073-108.073z"></path>
    </symbol>
    <symbol xmlns="http://www.w3.org/2000/svg" viewBox="0 0 20 20" id="share">
        <path d="M15.9 14.1c-.8 0-1.4.3-1.9.8l-7.1-4.1c.1-.3.1-.5.1-.8s0-.5-.1-.7l7-4.1c.5.5 1.2.8 2 .8 1.6 0 3-1.3 3-3s-1.3-3-3-3-3 1.3-3 3c0 .2 0 .5.1.7L6 7.8C5.5 7.3 4.8 7 4 7c-1.6 0-3 1.3-3 3s1.3 3 3 3c.8 0 1.5-.3 2-.8l7 4.1c0 .2-.1.4-.1.6 0 1.6 1.3 2.9 2.9 2.9 1.6 0 2.9-1.3 2.9-2.9s-1.2-2.8-2.8-2.8zm0-12c.5 0 1 .4 1 1s-.4 1-1 1c-.5 0-1-.4-1-1s.5-1 1-1zM4.1 11c-.5 0-1-.4-1-1s.4-1 1-1 1 .4 1 1-.5 1-1 1zm11.8 7c-.5 0-1-.4-1-1 0-.5.4-1 1-1 .5 0 1 .4 1 1 0 .5-.4 1-1 1z"></path>
    </symbol>
    <symbol viewBox="0 0 24 24" xmlns="http://www.w3.org/2000/svg" id="circle-with-check-symbol">
        <g fill="none">
            <path d="M12 24C5.373 24 0 18.627 0 12S5.373 0 12 0s12 5.373 12 12-5.373 12-12 12z" fill="#008840"></path>
            <path d="M17.596 8.4c.454.45.538 1.094.188 1.438L10.618 17l-.78-.773-.001.004-3.768-3.723c-.19-.187.025-.703.48-1.151.453-.449.975-.661 1.164-.474l2.894 2.859 5.534-5.53c.35-.345 1.001-.26 1.455.189z" fill="#FFF"></path>
        </g>
    </symbol>
    <symbol viewBox="0 0 18 18" xmlns="http://www.w3.org/2000/svg" id="add-icon">
        <path d="M15 9.04c0 .39-.32.71-.71.71h-4.04a.5.5 0 0 0-.5.5v4.04c0 .39-.32.71-.71.71h-.08c-.39 0-.71-.32-.71-.71v-4.04a.5.5 0 0 0-.5-.5H3.71c-.39 0-.71-.32-.71-.71v-.08c0-.39.32-.71.71-.71h4.04a.5.5 0 0 0 .5-.5V3.71c0-.39.32-.71.71-.71h.08c.39 0 .71.32.71.71v4.04a.5.5 0 0 0 .5.5h4.04c.39 0 .71.32.71.71v.08zm.36-6.4a8.98 8.98 0 0 0-12.72 0 8.98 8.98 0 0 0 0 12.72 8.98 8.98 0 0 0 12.72 0 8.98 8.98 0 0 0 0-12.72z" fill="#FFF" fill-rule="evenodd"></path>
    </symbol>
    <symbol viewBox="0 0 24 17" xmlns="http://www.w3.org/2000/svg" id="eye">
        <g fill="#FFF" fill-rule="evenodd">
            <path d="M11.939 3a5.256 5.256 0 0 1 5.25 5.25 5.256 5.256 0 0 1-5.25 5.25 5.256 5.256 0 0 1-5.25-5.25A5.256 5.256 0 0 1 11.939 3zm11.825 4.969A12.701 12.701 0 0 0 11.939 0 12.701 12.701 0 0 0 .114 7.969L0 8.25l.113.281A12.701 12.701 0 0 0 11.939 16.5c5.225 0 9.866-3.128 11.825-7.969l.113-.281-.113-.281z"></path>
            <path d="M11.939 12a3.755 3.755 0 0 0 3.75-3.75V7.5h-2.347l1.314-1.966-.64-.414a3.818 3.818 0 0 0-2.077-.62 3.755 3.755 0 0 0-3.75 3.75 3.755 3.755 0 0 0 3.75 3.75"></path>
        </g>
    </symbol>
</svg>